<?xml version="1.0" standalone="no"?><!DOCTYPE svg PUBLIC "-//W3C//DTD SVG 1.1//EN" "http://www.w3.org/Graphics/SVG/1.1/DTD/svg11.dtd"><svg t="1565699111790" class="icon" viewBox="0 0 1024 1024" version="1.1" xmlns="http://www.w3.org/2000/svg" p-id="4500" xmlns:xlink="http://www.w3.org/1999/xlink" width="200" height="200"><defs><style type="text/css"></style></defs><path d="M79.862 736.941c0 6.249-5.285 11.311-11.81 11.311-6.505 0-11.785-5.062-11.785-11.311V323.086c0-6.25 5.28-11.305 11.785-11.305 6.525 0 11.81 5.056 11.81 11.305v413.855z" fill="#FDFBFB" p-id="4501"></path><path d="M633.021 244.597c0 7.818-3.001 14.16-6.702 14.16l-123.887 22.825-123.748-22.825c-3.699 0-6.697-6.342-6.697-14.16 0-7.823 2.998-14.164 6.697-14.164h247.635c3.702 0.001 6.702 6.341 6.702 14.164z" fill="#FAD9CF" p-id="4502"></path><path d="M539.879 390.937c0 14.817-22.565 26.826-37.378 26.826-14.814 0-37.381-12.008-37.381-26.826l10.555-181.04c0-14.81 12.011-26.822 26.826-26.822 14.812 0 26.829 12.012 26.829 26.822l10.549 181.04z" fill="#F8C9BE" p-id="4503"></path><path d="M1024.056 547.414c0 14.465-11.727 26.191-26.197 26.191l-484.197 42.223L30 573.605c-14.467 0-26.192-11.727-26.192-26.191 0-14.473 11.725-26.2 26.192-26.2h967.858c14.471 0 26.198 11.727 26.198 26.2z" fill="#FAD9CF" p-id="4504"></path><path d="M997.858 554.076l-484.197 42.222L30 554.076c-9.986 0-18.564-5.663-22.985-13.879-1.979 3.681-3.207 7.835-3.207 12.314 0 14.464 11.725 26.19 26.192 26.19l483.661 42.223 484.197-42.223c14.471 0 26.197-11.727 26.197-26.19 0-4.479-1.231-8.634-3.212-12.314-4.413 8.216-12.997 13.879-22.985 13.879z" fill="#F8C9BE" p-id="4505"></path><path d="M728.347 571.992c0 122.981-99.698 222.677-222.681 222.677-122.984 0-222.682-99.695-222.682-222.677 0-122.989 99.698-222.684 222.682-222.684 122.982 0.001 222.681 99.695 222.681 222.684z" fill="#FAD9CF" p-id="4506"></path><path d="M506.855 689.717c-108.058 0-198.121-69.338-218.381-161.307a223.341 223.341 0 0 0-4.299 43.582c0 122.981 99.699 222.677 222.68 222.677s222.684-99.695 222.684-222.677c0-14.921-1.501-29.482-4.294-43.582-20.269 91.969-110.323 161.307-218.39 161.307z" fill="#F8C9BE" p-id="4507"></path><path d="M642.655 552.011c0.268 0.48 0.036 0.874-0.514 0.874H371.574c-0.55 0-0.781-0.394-0.514-0.874l51.331-92.316c0.267-0.481 0.936-0.874 1.486-0.874h165.958c0.55 0 1.219 0.393 1.486 0.874l51.334 92.316z" fill="#E4B1A4" p-id="4508"></path><path d="M393.152 429.499c0 6.485-5.248 11.735-11.727 11.735-6.486 0-11.743-5.25-11.743-11.735 0-6.486 5.257-11.736 11.743-11.736 6.479 0 11.727 5.249 11.727 11.736z" fill="#FFFFFF" p-id="4509"></path><path d="M161.431 621.438c0 22.58-18.303 40.882-40.877 40.882-22.571 0-40.882-18.302-40.882-40.882 0-22.575 18.311-40.877 40.882-40.877 22.574 0.001 40.877 18.302 40.877 40.877z" fill="#E4B1A4" p-id="4510"></path><path d="M143.178 621.438c0 12.49-10.131 22.625-22.624 22.625-12.494 0-22.626-10.135-22.626-22.625 0-12.494 10.133-22.629 22.626-22.629 12.492 0.001 22.624 10.135 22.624 22.629z" fill="#D49186" p-id="4511"></path><path d="M953.953 621.438c0 22.58-18.299 40.882-40.878 40.882-22.58 0-40.873-18.302-40.873-40.882 0-22.575 18.293-40.877 40.873-40.877 22.579 0.001 40.878 18.302 40.878 40.877z" fill="#E4B1A4" p-id="4512"></path><path d="M935.699 621.438c0 12.49-10.127 22.625-22.624 22.625-12.495 0-22.625-10.135-22.625-22.625 0-12.494 10.13-22.629 22.625-22.629 12.497 0.001 22.624 10.135 22.624 22.629z" fill="#D49186" p-id="4513"></path><path d="M194.462 528.237a2.858 2.858 0 0 1-2.857 2.857H47.35a2.852 2.852 0 0 1-2.853-2.857 2.853 2.853 0 0 1 2.853-2.861h144.255a2.859 2.859 0 0 1 2.857 2.861z" fill="#F9F9F8" p-id="4514"></path></svg>